<?xml version="1.0" encoding="UTF-8" standalone="no"?>
<!-- Created with Inkscape (http://www.inkscape.org/) -->
<svg
   xmlns:dc="http://purl.org/dc/elements/1.1/"
   xmlns:cc="http://creativecommons.org/ns#"
   xmlns:rdf="http://www.w3.org/1999/02/22-rdf-syntax-ns#"
   xmlns:svg="http://www.w3.org/2000/svg"
   xmlns="http://www.w3.org/2000/svg"
   xmlns:sodipodi="http://sodipodi.sourceforge.net/DTD/sodipodi-0.dtd"
   xmlns:inkscape="http://www.inkscape.org/namespaces/inkscape"
   width="227.54848"
   height="168.68982"
   id="svg4731"
   sodipodi:version="0.32"
   inkscape:version="0.46"
   sodipodi:docname="datalayout_local.svg"
   inkscape:output_extension="org.inkscape.output.svg.inkscape"
   version="1.0">
  <defs
     id="defs4733">
    <inkscape:perspective
       sodipodi:type="inkscape:persp3d"
       inkscape:vp_x="0 : 526.18109 : 1"
       inkscape:vp_y="0 : 1000 : 0"
       inkscape:vp_z="744.09448 : 526.18109 : 1"
       inkscape:persp3d-origin="372.04724 : 350.78739 : 1"
       id="perspective4739" />
  </defs>
  <sodipodi:namedview
     id="base"
     pagecolor="#ffffff"
     bordercolor="#666666"
     borderopacity="1.0"
     gridtolerance="10000"
     guidetolerance="10"
     objecttolerance="10"
     inkscape:pageopacity="0.0"
     inkscape:pageshadow="2"
     inkscape:zoom="2.8"
     inkscape:cx="162.61807"
     inkscape:cy="105.7147"
     inkscape:document-units="px"
     inkscape:current-layer="layer1"
     showgrid="false"
     inkscape:window-width="1270"
     inkscape:window-height="945"
     inkscape:window-x="0"
     inkscape:window-y="25" />
  <metadata
     id="metadata4736">
    <rdf:RDF>
      <cc:Work
         rdf:about="">
        <dc:format>image/svg+xml</dc:format>
        <dc:type
           rdf:resource="http://purl.org/dc/dcmitype/StillImage" />
      </cc:Work>
    </rdf:RDF>
  </metadata>
  <g
     inkscape:label="Layer 1"
     inkscape:groupmode="layer"
     id="layer1"
     transform="translate(-162.82539,-73.181819)">
    <path
       d="M 179.37877,162.18414 L 249.37877,162.18414 L 249.37877,83.434137 L 179.37877,83.434137 L 179.37877,162.18414 z"
       style="fill:#dedede;fill-opacity:1;fill-rule:nonzero;stroke:none"
       id="path2596" />
    <path
       d="M 249.37877,240.93414 L 319.37877,240.93414 L 319.37877,162.18414 L 249.37877,162.18414 L 249.37877,240.93414 z"
       style="fill:#dedede;fill-opacity:1;fill-rule:nonzero;stroke:none"
       id="path2598" />
    <path
       d="M 319.37877,162.18414 L 389.37877,162.18414 L 389.37877,83.434137 L 319.37877,83.434137 L 319.37877,162.18414 z"
       style="fill:#dedede;fill-opacity:1;fill-rule:nonzero;stroke:none"
       id="path2600" />
    <text
       id="text2602"
       x="205.62877"
       y="128.43414"
       style="font-size:15px">
      <tspan
         style="font-size:22.5px;font-variant:normal;font-weight:normal;writing-mode:lr-tb;fill:#000000;fill-opacity:1;fill-rule:nonzero;stroke:none;font-family:Times;-inkscape-font-specification:Times-Roman"
         x="205.62877"
         y="128.43414"
         id="tspan2604">P</tspan>
    </text>
    <text
       id="text2606"
       x="216.87877"
       y="130.30914"
       style="font-size:15px">
      <tspan
         style="font-size:15px;font-variant:normal;font-weight:normal;writing-mode:lr-tb;fill:#000000;fill-opacity:1;fill-rule:nonzero;stroke:none;font-family:Times;-inkscape-font-specification:Times-Roman"
         x="216.87877"
         y="130.30914"
         id="tspan2608">0</tspan>
    </text>
    <text
       id="text2610"
       x="205.62877"
       y="207.18414"
       style="font-size:15px">
      <tspan
         style="font-size:22.5px;font-variant:normal;font-weight:normal;writing-mode:lr-tb;fill:#000000;fill-opacity:1;fill-rule:nonzero;stroke:none;font-family:Times;-inkscape-font-specification:Times-Roman"
         x="205.62877"
         y="207.18414"
         id="tspan2612">P</tspan>
    </text>
    <text
       id="text2614"
       x="216.87877"
       y="209.05914"
       style="font-size:15px">
      <tspan
         style="font-size:15px;font-variant:normal;font-weight:normal;writing-mode:lr-tb;fill:#000000;fill-opacity:1;fill-rule:nonzero;stroke:none;font-family:Times;-inkscape-font-specification:Times-Roman"
         x="216.87877"
         y="209.05914"
         id="tspan2616">3</tspan>
    </text>
    <text
       id="text2618"
       x="275.62878"
       y="128.43414"
       style="font-size:15px">
      <tspan
         style="font-size:22.5px;font-variant:normal;font-weight:normal;writing-mode:lr-tb;fill:#000000;fill-opacity:1;fill-rule:nonzero;stroke:none;font-family:Times;-inkscape-font-specification:Times-Roman"
         x="275.62878"
         y="128.43414"
         id="tspan2620">P</tspan>
    </text>
    <text
       id="text2622"
       x="286.87878"
       y="130.30914"
       style="font-size:15px">
      <tspan
         style="font-size:15px;font-variant:normal;font-weight:normal;writing-mode:lr-tb;fill:#000000;fill-opacity:1;fill-rule:nonzero;stroke:none;font-family:Times;-inkscape-font-specification:Times-Roman"
         x="286.87878"
         y="130.30914"
         id="tspan2624">1</tspan>
    </text>
    <text
       id="text2626"
       x="275.62878"
       y="207.18414"
       style="font-size:15px">
      <tspan
         style="font-size:22.5px;font-variant:normal;font-weight:normal;writing-mode:lr-tb;fill:#000000;fill-opacity:1;fill-rule:nonzero;stroke:none;font-family:Times;-inkscape-font-specification:Times-Roman"
         x="275.62878"
         y="207.18414"
         id="tspan2628">P</tspan>
    </text>
    <text
       id="text2630"
       x="286.87878"
       y="209.05914"
       style="font-size:15px">
      <tspan
         style="font-size:15px;font-variant:normal;font-weight:normal;writing-mode:lr-tb;fill:#000000;fill-opacity:1;fill-rule:nonzero;stroke:none;font-family:Times;-inkscape-font-specification:Times-Roman"
         x="286.87878"
         y="209.05914"
         id="tspan2632">4</tspan>
    </text>
    <text
       id="text2634"
       x="345.62878"
       y="128.43414"
       style="font-size:15px">
      <tspan
         style="font-size:22.5px;font-variant:normal;font-weight:normal;writing-mode:lr-tb;fill:#000000;fill-opacity:1;fill-rule:nonzero;stroke:none;font-family:Times;-inkscape-font-specification:Times-Roman"
         x="345.62878"
         y="128.43414"
         id="tspan2636">P</tspan>
    </text>
    <text
       id="text2638"
       x="356.87878"
       y="130.30914"
       style="font-size:15px">
      <tspan
         style="font-size:15px;font-variant:normal;font-weight:normal;writing-mode:lr-tb;fill:#000000;fill-opacity:1;fill-rule:nonzero;stroke:none;font-family:Times;-inkscape-font-specification:Times-Roman"
         x="356.87878"
         y="130.30914"
         id="tspan2640">2</tspan>
    </text>
    <text
       id="text2642"
       x="345.62878"
       y="207.18414"
       style="font-size:15px">
      <tspan
         style="font-size:22.5px;font-variant:normal;font-weight:normal;writing-mode:lr-tb;fill:#000000;fill-opacity:1;fill-rule:nonzero;stroke:none;font-family:Times;-inkscape-font-specification:Times-Roman"
         x="345.62878"
         y="207.18414"
         id="tspan2644">P</tspan>
    </text>
    <text
       id="text2646"
       x="356.87878"
       y="209.05914"
       style="font-size:15px">
      <tspan
         style="font-size:15px;font-variant:normal;font-weight:normal;writing-mode:lr-tb;fill:#000000;fill-opacity:1;fill-rule:nonzero;stroke:none;font-family:Times;-inkscape-font-specification:Times-Roman"
         x="356.87878"
         y="209.05914"
         id="tspan2648">5</tspan>
    </text>
    <path
       d="M 179.37877,83.434137 L 389.37877,83.434137 L 389.37877,240.93414 L 179.37877,240.93414 L 179.37877,83.434137 z"
       style="fill:none;stroke:#000000;stroke-width:1.875;stroke-linecap:butt;stroke-linejoin:miter;stroke-miterlimit:10;stroke-dasharray:none;stroke-opacity:1"
       id="path2682" />
    <path
       d="M 179.37877,83.434137 L 389.37877,83.434137 M 179.37877,162.18414 L 389.37877,162.18414 M 179.37877,240.93414 L 389.37877,240.93414 M 179.37877,83.434137 L 179.37877,240.93414 M 249.37877,83.434137 L 249.37877,240.93414 M 319.37877,83.434137 L 319.37877,240.93414 M 389.37877,83.434137 L 389.37877,240.93414"
       style="fill:none;stroke:#000000;stroke-width:0.875;stroke-linecap:butt;stroke-linejoin:miter;stroke-miterlimit:10;stroke-dasharray:none;stroke-opacity:1"
       id="path2684" />
    <path
       d="M 179.37877,83.434137 L 389.37877,83.434137 M 179.37877,96.559137 L 389.37877,96.559137 M 179.37877,109.68414 L 389.37877,109.68414 M 179.37877,122.80914 L 389.37877,122.80914 M 179.37877,135.93414 L 389.37877,135.93414 M 179.37877,149.05914 L 389.37877,149.05914 M 179.37877,162.18414 L 389.37877,162.18414 M 179.37877,175.30914 L 389.37877,175.30914 M 179.37877,188.43414 L 389.37877,188.43414 M 179.37877,201.55914 L 389.37877,201.55914 M 179.37877,214.68414 L 389.37877,214.68414 M 179.37877,227.80914 L 389.37877,227.80914 M 179.37877,240.93414 L 389.37877,240.93414 M 179.37877,83.434137 L 179.37877,240.93414 M 196.87877,83.434137 L 196.87877,240.93414 M 214.37877,83.434137 L 214.37877,240.93414 M 231.87877,83.434137 L 231.87877,240.93414 M 249.37877,83.434137 L 249.37877,240.93414 M 266.87877,83.434137 L 266.87877,240.93414 M 284.37877,83.434137 L 284.37877,240.93414 M 301.87877,83.434137 L 301.87877,240.93414 M 319.37877,83.434137 L 319.37877,240.93414 M 336.87877,83.434137 L 336.87877,240.93414 M 354.37877,83.434137 L 354.37877,240.93414 M 371.87877,83.434137 L 371.87877,240.93414 M 389.37877,83.434137 L 389.37877,240.93414"
       style="fill:none;stroke:none"
       id="path2686" />
    <flowRoot
       xml:space="preserve"
       id="flowRoot3550"
       style="font-size:11px;font-style:normal;font-weight:normal;fill:#000000;fill-opacity:1;stroke:none;stroke-width:1px;stroke-linecap:butt;stroke-linejoin:miter;stroke-opacity:1;font-family:Bitstream Vera Sans"
       transform="translate(-170.01836,-205.81538)"><flowRegion
         id="flowRegion3552"><rect
           id="rect3554"
           width="240.9214"
           height="182.33253"
           x="332.84528"
           y="278.08026"
           style="font-size:11px" /></flowRegion><flowPara
         id="flowPara3556"
         style="font-size:10.5px;font-style:italic;font-variant:normal;font-weight:normal;font-stretch:normal;font-family:AlArabiya;-inkscape-font-specification:AlArabiya Italic">       0    3    6    9    1    4    7    10    2    5   8  11</flowPara><flowPara
         id="flowPara3560"
         style="font-size:10.5px;font-style:italic;font-variant:normal;font-weight:normal;font-stretch:normal;font-family:AlArabiya;-inkscape-font-specification:AlArabiya Italic">0</flowPara><flowPara
         style="font-size:10.5px;font-style:italic;font-variant:normal;font-weight:normal;font-stretch:normal;font-family:AlArabiya;-inkscape-font-specification:AlArabiya Italic"
         id="flowPara3588">2</flowPara><flowPara
         id="flowPara3562"
         style="font-size:10.5px;font-style:italic;font-variant:normal;font-weight:normal;font-stretch:normal;font-family:AlArabiya;-inkscape-font-specification:AlArabiya Italic">4</flowPara><flowPara
         id="flowPara3564"
         style="font-size:10.5px;font-style:italic;font-variant:normal;font-weight:normal;font-stretch:normal;font-family:AlArabiya;-inkscape-font-specification:AlArabiya Italic">6</flowPara><flowPara
         id="flowPara3566"
         style="font-size:10.5px;font-style:italic;font-variant:normal;font-weight:normal;font-stretch:normal;font-family:AlArabiya;-inkscape-font-specification:AlArabiya Italic">8</flowPara><flowPara
         id="flowPara3568"
         style="font-size:10.5px;font-style:italic;font-variant:normal;font-weight:normal;font-stretch:normal;font-family:AlArabiya;-inkscape-font-specification:AlArabiya Italic">10</flowPara><flowPara
         id="flowPara3570"
         style="font-size:10.5px;font-style:italic;font-variant:normal;font-weight:normal;font-stretch:normal;font-family:AlArabiya;-inkscape-font-specification:AlArabiya Italic">1</flowPara><flowPara
         id="flowPara3572"
         style="font-size:10.5px;font-style:italic;font-variant:normal;font-weight:normal;font-stretch:normal;font-family:AlArabiya;-inkscape-font-specification:AlArabiya Italic">3</flowPara><flowPara
         id="flowPara3574"
         style="font-size:10.5px;font-style:italic;font-variant:normal;font-weight:normal;font-stretch:normal;font-family:AlArabiya;-inkscape-font-specification:AlArabiya Italic">5</flowPara><flowPara
         id="flowPara3576"
         style="font-size:10.5px;font-style:italic;font-variant:normal;font-weight:normal;font-stretch:normal;font-family:AlArabiya;-inkscape-font-specification:AlArabiya Italic">7</flowPara><flowPara
         id="flowPara3592"
         style="font-size:10.5px;font-style:italic;font-variant:normal;font-weight:normal;font-stretch:normal;font-family:AlArabiya;-inkscape-font-specification:AlArabiya Italic">9</flowPara><flowPara
         style="font-size:10.5px;font-style:italic;font-variant:normal;font-weight:normal;font-stretch:normal;font-family:AlArabiya;-inkscape-font-specification:AlArabiya Italic"
         id="flowPara3604">11</flowPara></flowRoot>    <path
       id="path4469"
       style="fill:none;stroke:#000000;stroke-width:0.46666697;stroke-linecap:butt;stroke-linejoin:miter;stroke-miterlimit:10;stroke-dasharray:none;stroke-opacity:1"
       d="M 179.79469,83.42089 L 249.07631,83.42089 M 179.79469,109.66903 L 249.07631,109.66903 M 179.79469,135.91715 L 249.07631,135.91715 M 179.79469,162.16526 L 249.07631,162.16526 M 179.79469,188.41336 L 249.07631,188.41336 M 179.79469,214.66148 L 249.07631,214.66148 M 179.79469,240.90962 L 249.07631,240.90962 M 179.79469,83.42089 L 179.79469,240.90962 M 197.1151,83.42089 L 197.1151,240.90962 M 214.4355,83.42089 L 214.4355,240.90962 M 231.7559,83.42089 L 231.7559,240.90962 M 249.07631,83.42089 L 249.07631,240.90962" />
    <path
       id="path4367"
       style="fill:none;stroke:#000000;stroke-width:0.57344639;stroke-linecap:butt;stroke-linejoin:miter;stroke-miterlimit:10;stroke-dasharray:none;stroke-opacity:1"
       d="M 179.13383,162.22026 L 390.08713,162.22026 M 179.13383,175.23698 L 390.08713,175.23698 M 179.13383,188.25369 L 390.08713,188.25369 M 179.13383,201.2704 L 390.08713,201.2704 M 179.13383,214.2871 L 390.08713,214.2871 M 179.13383,227.30381 L 390.08713,227.30381 M 179.13383,240.32053 L 390.08713,240.32053 M 179.13383,162.22026 L 179.13383,240.32053 M 231.87216,162.22026 L 231.87216,240.32053 M 284.61048,162.22026 L 284.61048,240.32053 M 337.34881,162.22026 L 337.34881,240.32053 M 390.08713,162.22026 L 390.08713,240.32053" />
    <path
       id="path4369"
       style="fill:none;stroke:#000000;stroke-width:0.57344639;stroke-linecap:butt;stroke-linejoin:miter;stroke-miterlimit:10;stroke-dasharray:none;stroke-opacity:1"
       d="M 179.13384,83.8314 L 390.08714,83.8314 M 179.13384,96.84812 L 390.08714,96.84812 M 179.13384,109.86483 L 390.08714,109.86483 M 179.13384,122.88154 L 390.08714,122.88154 M 179.13384,135.89824 L 390.08714,135.89824 M 179.13384,148.91495 L 390.08714,148.91495 M 179.13384,161.93167 L 390.08714,161.93167 M 179.13384,83.8314 L 179.13384,161.93167 M 231.87217,83.8314 L 231.87217,161.93167 M 284.61049,83.8314 L 284.61049,161.93167 M 337.34882,83.8314 L 337.34882,161.93167 M 390.08714,83.8314 L 390.08714,161.93167" />
    <path
       id="path4471"
       style="fill:none;stroke:#000000;stroke-width:0.47143045;stroke-linecap:butt;stroke-linejoin:miter;stroke-miterlimit:10;stroke-dasharray:none;stroke-opacity:1"
       d="M 248.90069,83.42327 L 319.60603,83.42327 M 248.90069,109.6706 L 319.60603,109.6706 M 248.90069,135.91793 L 319.60603,135.91793 M 248.90069,162.16525 L 319.60603,162.16525 M 248.90069,188.41256 L 319.60603,188.41256 M 248.90069,214.65989 L 319.60603,214.65989 M 248.90069,240.90722 L 319.60603,240.90722 M 248.90069,83.42327 L 248.90069,240.90722 M 266.57702,83.42327 L 266.57702,240.90722 M 284.25336,83.42327 L 284.25336,240.90722 M 301.9297,83.42327 L 301.9297,240.90722 M 319.60603,83.42327 L 319.60603,240.90722" />
    <path
       id="path4473"
       style="fill:none;stroke:#000000;stroke-width:0.46666697;stroke-linecap:butt;stroke-linejoin:miter;stroke-miterlimit:10;stroke-dasharray:none;stroke-opacity:1"
       d="M 319.60898,83.42089 L 388.89058,83.42089 M 319.60898,109.66901 L 388.89058,109.66901 M 319.60898,135.91714 L 388.89058,135.91714 M 319.60898,162.16525 L 388.89058,162.16525 M 319.60898,188.41335 L 388.89058,188.41335 M 319.60898,214.66148 L 388.89058,214.66148 M 319.60898,240.9096 L 388.89058,240.9096 M 319.60898,83.42089 L 319.60898,240.9096 M 336.92937,83.42089 L 336.92937,240.9096 M 354.24978,83.42089 L 354.24978,240.9096 M 371.57019,83.42089 L 371.57019,240.9096 M 388.89058,83.42089 L 388.89058,240.9096" />
  </g>
</svg>
