<?xml version="1.0" encoding="UTF-8" standalone="no"?>
<!-- Created with Inkscape (http://www.inkscape.org/) -->

<svg
   xmlns:dc="http://purl.org/dc/elements/1.1/"
   xmlns:cc="http://creativecommons.org/ns#"
   xmlns:rdf="http://www.w3.org/1999/02/22-rdf-syntax-ns#"
   xmlns:svg="http://www.w3.org/2000/svg"
   xmlns="http://www.w3.org/2000/svg"
   xmlns:sodipodi="http://sodipodi.sourceforge.net/DTD/sodipodi-0.dtd"
   xmlns:inkscape="http://www.inkscape.org/namespaces/inkscape"
   id="svg2"
   version="1.1"
   inkscape:version="0.47pre4 r22446"
   width="505.20001"
   height="202.47589"
   xml:space="preserve"
   sodipodi:docname="workflow1.svg"><metadata
     id="metadata8"><rdf:RDF><cc:Work
         rdf:about=""><dc:format>image/svg+xml</dc:format><dc:type
           rdf:resource="http://purl.org/dc/dcmitype/StillImage" /><dc:title /></cc:Work></rdf:RDF></metadata><defs
     id="defs6"><inkscape:perspective
       sodipodi:type="inkscape:persp3d"
       inkscape:vp_x="0 : 0.5 : 1"
       inkscape:vp_y="0 : 1000 : 0"
       inkscape:vp_z="1 : 0.5 : 1"
       inkscape:persp3d-origin="0.5 : 0.33333333 : 1"
       id="perspective10" /><clipPath
       clipPathUnits="userSpaceOnUse"
       id="clipPath20"><path
         d="m 115,254 0,3000 2250,0 0,-3000 -2250,0 z"
         clip-rule="evenodd"
         id="path22" /></clipPath><inkscape:perspective
       id="perspective2907"
       inkscape:persp3d-origin="0.5 : 0.33333333 : 1"
       inkscape:vp_z="1 : 0.5 : 1"
       inkscape:vp_y="0 : 1000 : 0"
       inkscape:vp_x="0 : 0.5 : 1"
       sodipodi:type="inkscape:persp3d" /><inkscape:perspective
       id="perspective2932"
       inkscape:persp3d-origin="0.5 : 0.33333333 : 1"
       inkscape:vp_z="1 : 0.5 : 1"
       inkscape:vp_y="0 : 1000 : 0"
       inkscape:vp_x="0 : 0.5 : 1"
       sodipodi:type="inkscape:persp3d" /><inkscape:perspective
       id="perspective2932-5"
       inkscape:persp3d-origin="0.5 : 0.33333333 : 1"
       inkscape:vp_z="1 : 0.5 : 1"
       inkscape:vp_y="0 : 1000 : 0"
       inkscape:vp_x="0 : 0.5 : 1"
       sodipodi:type="inkscape:persp3d" /><inkscape:perspective
       id="perspective2932-59"
       inkscape:persp3d-origin="0.5 : 0.33333333 : 1"
       inkscape:vp_z="1 : 0.5 : 1"
       inkscape:vp_y="0 : 1000 : 0"
       inkscape:vp_x="0 : 0.5 : 1"
       sodipodi:type="inkscape:persp3d" /><inkscape:perspective
       id="perspective2987"
       inkscape:persp3d-origin="0.5 : 0.33333333 : 1"
       inkscape:vp_z="1 : 0.5 : 1"
       inkscape:vp_y="0 : 1000 : 0"
       inkscape:vp_x="0 : 0.5 : 1"
       sodipodi:type="inkscape:persp3d" /><inkscape:perspective
       id="perspective3014"
       inkscape:persp3d-origin="0.5 : 0.33333333 : 1"
       inkscape:vp_z="1 : 0.5 : 1"
       inkscape:vp_y="0 : 1000 : 0"
       inkscape:vp_x="0 : 0.5 : 1"
       sodipodi:type="inkscape:persp3d" /><inkscape:perspective
       id="perspective3039"
       inkscape:persp3d-origin="0.5 : 0.33333333 : 1"
       inkscape:vp_z="1 : 0.5 : 1"
       inkscape:vp_y="0 : 1000 : 0"
       inkscape:vp_x="0 : 0.5 : 1"
       sodipodi:type="inkscape:persp3d" /><inkscape:perspective
       id="perspective3064"
       inkscape:persp3d-origin="0.5 : 0.33333333 : 1"
       inkscape:vp_z="1 : 0.5 : 1"
       inkscape:vp_y="0 : 1000 : 0"
       inkscape:vp_x="0 : 0.5 : 1"
       sodipodi:type="inkscape:persp3d" /><inkscape:perspective
       id="perspective3089"
       inkscape:persp3d-origin="0.5 : 0.33333333 : 1"
       inkscape:vp_z="1 : 0.5 : 1"
       inkscape:vp_y="0 : 1000 : 0"
       inkscape:vp_x="0 : 0.5 : 1"
       sodipodi:type="inkscape:persp3d" /><inkscape:perspective
       id="perspective3114"
       inkscape:persp3d-origin="0.5 : 0.33333333 : 1"
       inkscape:vp_z="1 : 0.5 : 1"
       inkscape:vp_y="0 : 1000 : 0"
       inkscape:vp_x="0 : 0.5 : 1"
       sodipodi:type="inkscape:persp3d" /></defs><sodipodi:namedview
     pagecolor="#ffffff"
     bordercolor="#666666"
     borderopacity="1"
     objecttolerance="10"
     gridtolerance="10"
     guidetolerance="10"
     inkscape:pageopacity="0"
     inkscape:pageshadow="2"
     inkscape:window-width="1280"
     inkscape:window-height="950"
     id="namedview4"
     showgrid="false"
     showguides="true"
     inkscape:guide-bbox="true"
     inkscape:zoom="0.89691211"
     inkscape:cx="101.58396"
     inkscape:cy="136.32862"
     inkscape:window-x="0"
     inkscape:window-y="25"
     inkscape:window-maximized="1"
     inkscape:current-layer="g2872" /><g
     id="g12"
     inkscape:groupmode="layer"
     inkscape:label="job_15-untitled_document"
     transform="matrix(1.25,0,0,-1.25,39.555931,695.73448)"><g
       id="g14"
       transform="matrix(0.24,0,0,0.24,-14.271186,3.3898314e-7)"><g
         id="g2872"
         transform="matrix(0,-1,1,0,-547.38983,3279.1949)"><path
   id="path30"
   style="fill:#ffffff;fill-opacity:1;fill-rule:evenodd;stroke:none"
   d="m 1466.9996,854 0,163 -57,0 113,112 112,-112 -56,0 0,-163" /><path
   id="path32"
   style="fill:#000000;fill-opacity:1;fill-rule:nonzero;stroke:none"
   d="m 1486.2285,850 0,167 2.7847,-4 -46.644,0 85.6302,122 85.6302,-122 -46.6441,0 2.7846,4 0,-167 -83.5416,0 z m 80.757,9 -2.7848,-5 0,167 41.7709,0 -1.3924,-7 -78.6684,113 4.1771,0 -78.6684,-113 -2.0886,7 42.4671,0 0,-167 -2.7848,5" /><path
   id="path36"
   style="fill:#000000;fill-opacity:1;fill-rule:nonzero;stroke:none"
   d="m 1452.5599,1125 -3.8281,1 -3.2812,1 -3.8282,1 -3.2812,2 -3.2813,3 -2.7343,4 -2.7344,3 -2.7344,5 -2.1875,4 -2.1875,6 -2.1876,5 -1.0937,6 -1.6406,6 -0.5469,6 -0.5468,7 -0.5469,7 0,250 0.5469,7 0.5468,6 0.5469,7 1.0937,6 1.6406,6 2.1876,5 1.6406,5 2.7344,5 2.1874,4 3.2814,4 2.7343,3 3.2813,3 3.2812,3 3.2813,1 3.8281,1 3.8281,1 136.7187,0 3.8281,-1 3.2813,-1 3.8282,-1 3.2812,-2 3.2813,-3 2.7343,-4 2.7343,-3 2.7345,-5 2.1875,-4 2.1876,-6 1.6405,-5 1.6406,-6 1.6406,-6 0.5469,-6 0.5469,-7 0.5469,-7 0,-250 -0.5469,-7 -0.5469,-6 -0.5469,-7 -1.0937,-6 -1.6406,-6 -2.1874,-5 -1.6407,-5 -2.7344,-5 -2.1875,-4 -3.2813,-4 -2.7343,-4 -3.2813,-2 -3.2812,-3 -3.2813,-1 -3.8282,-1 -3.8281,-1 -136.7187,0 z m 136.7187,9 3.2812,0 3.2813,1 2.7345,1 3.2811,2 2.7344,3 2.1876,3 2.7343,3 2.1875,4 2.1875,4 1.6407,4 1.6406,5 1.6406,5 1.0938,5 0.5468,6 0.5469,6 0,262 -0.5469,6 -0.5468,5 -1.0938,5 -1.6406,6 -1.6406,4 -1.6407,5 -2.1875,4 -2.1875,4 -2.1874,3 -2.7345,3 -2.7344,3 -2.7343,2 -3.2813,1 -3.2813,1 -143.2811,0 -3.2813,-1 -2.7344,-1 -3.2812,-2 -2.7344,-3 -2.1875,-3 -2.7343,-3 -2.1875,-4 -2.1876,-4 -1.6405,-4 -1.6407,-5 -1.6406,-5 -1.0937,-5 -0.5469,-6 -0.547,-6 0,-262 0.547,-6 0.5469,-5 1.0937,-6 1.6406,-5 1.6407,-4 1.6405,-5 2.1876,-4 2.1875,-4 2.1875,-3 2.7343,-3 2.7344,-3 2.7345,-2 3.2811,-1 3.2813,-1 3.2812,0" /><path
   id="path40"
   style="fill:#000000;fill-opacity:1;fill-rule:nonzero;stroke:none"
   d="m 1452.56,1775 -3.8281,1 -3.2812,1 -3.8282,1 -3.2812,2 -3.2813,3 -2.7344,4 -2.7343,3 -2.7344,5 -2.1875,4 -2.1875,6 -2.1875,5 -1.0938,6 -1.6406,6 -0.5468,6 -0.5469,7 -0.5469,7 0,250 0.5469,7 0.5469,6 0.5468,7 1.0938,6 1.6406,6 2.1875,5 1.6406,5 2.7344,5 2.1875,4 3.2812,4 2.7344,3 3.2813,3 3.2812,3 3.2813,1 3.8281,1 3.8281,1 136.7188,0 3.828,-1 3.2813,-1 3.8282,-1 3.2812,-2 3.2813,-3 2.7344,-4 2.7343,-3 2.7344,-5 2.1875,-4 2.1876,-6 1.6405,-5 1.6406,-6 1.6406,-6 0.5469,-6 0.5469,-7 0.5469,-7 0,-250 -0.5469,-7 -0.5469,-6 -0.5469,-7 -1.0937,-6 -1.6406,-6 -2.1874,-5 -1.6407,-5 -2.7344,-5 -2.1876,-4 -3.2811,-4 -2.7344,-4 -3.2813,-2 -3.2812,-3 -3.2813,-1 -3.8282,-1 -3.828,-1 -136.7188,0 z m 136.7188,9 3.2812,0 3.2813,1 2.7344,1 3.2812,2 2.7343,3 2.1876,3 2.7344,3 2.1874,4 2.1875,4 1.6407,4 1.6406,5 1.6407,5 1.0937,5 0.5469,6 0.5468,6 0,262 -0.5468,6 -0.5469,5 -1.0937,5 -1.6407,6 -1.6406,4 -1.6407,5 -2.1875,4 -2.1874,4 -2.1875,3 -2.7345,3 -2.7343,3 -2.7343,2 -3.2813,1 -3.2813,1 -143.2812,0 -3.2813,-1 -2.7344,-1 -3.2812,-2 -2.7344,-3 -2.1875,-3 -2.7344,-3 -2.1874,-4 -2.1876,-4 -1.6405,-4 -1.6407,-5 -1.6406,-5 -1.0938,-5 -0.5469,-6 -0.5468,-6 0,-262 0.5468,-6 0.5469,-5 1.0938,-6 1.6406,-5 1.6407,-4 1.6405,-5 2.1876,-4 2.1874,-4 2.1876,-3 2.7343,-3 2.7344,-3 2.7344,-2 3.2812,-1 3.2813,-1 3.2812,0" /><path
   id="path44"
   style="fill:#000000;fill-opacity:1;fill-rule:nonzero;stroke:none"
   d="m 1479.5618,1500 0,167 2.7847,-4 -46.644,0 85.6302,122 85.6302,-122 -46.6441,0 2.7846,4 0,-167 -83.5416,0 z m 80.757,9 -2.7848,-5 0,167 41.7709,0 -1.3924,-7 -78.6684,113 4.1771,0 -78.6684,-113 -2.0886,7 42.4671,0 0,-167 -2.7848,5" /><path
   id="path56"
   style="fill:#ffffff;fill-opacity:1;fill-rule:evenodd;stroke:none"
   d="m 1415,779 -50,58 0,-25 c -88,27 -150,122 -150,230 l 0,-50 c 0,-108 62,-203 150,-230 l 0,-25" /><g
   id="g3142"
   transform="matrix(0.88054862,0,0,1,169.62096,0)"><path
     d="m 1217,1017 c 10,121 96,212 198,212 l 0,50 c -110,0 -200,-106 -200,-237 0,-8 1,-17 2,-25"
     style="fill:#cdcdcd;fill-opacity:1;fill-rule:evenodd;stroke:none"
     id="path58" /><g
     id="g3139"><path
       id="path60"
       style="fill:#000000;fill-opacity:1;fill-rule:nonzero;stroke:none"
       d="m 1212,1017 2,12 1,11 3,11 2,11 3,10 3,11 4,10 4,10 9,19 11,17 12,17 13,15 7,7 7,7 7,6 8,6 8,6 8,5 8,5 9,4 9,4 9,3 9,3 9,2 9,2 10,2 10,0 9,1 -4,-5 0,50 5,-4 -11,0 -10,-1 -9,-1 -10,-2 -9,-3 -10,-3 -9,-4 -9,-4 -8,-5 -9,-5 -8,-5 -8,-6 -8,-7 -7,-7 -7,-7 -7,-8 -6,-8 -6,-8 -12,-18 -5,-10 -5,-10 -4,-10 -4,-10 -3,-11 -4,-11 -2,-11 -2,-11 -2,-11 -1,-12 -1,-12 0,-82 2,-19 4,-19 5,-19 5,-18 8,-17 8,-16 9,-15 10,-15 11,-13 13,-13 13,-11 13,-10 15,-8 7,-4 8,-3 8,-3 8,-3 c 1,-1 3,-2 3,-4 l 0,-25 -7,3 50,43 -1,-6 -50,57 8,3 0,-25 c 0,-1 -1,-3 -2,-3 -1,-1 -3,-1 -4,-1 l -8,3 -8,3 -8,4 -8,3 -15,9 -15,11 -13,11 -13,13 -11,14 -11,15 -10,16 -8,17 -7,17 -6,19 -5,19 -4,19 -2,20 -1,21 9,0 0,-20 2,-19 4,-19 4,-19 6,-17 7,-17 9,-17 9,-15 10,-14 11,-14 12,-12 13,-11 14,-10 14,-9 8,-4 8,-3 8,-3 8,-3 -6,-4 0,25 c 0,2 1,3 3,4 2,1 3,0 5,-1 l 50,-58 c 0,-1 1,-2 1,-3 0,-1 -1,-2 -2,-3 l -50,-42 c -1,-1 -3,-1 -4,-1 -2,1 -3,2 -3,4 l 0,25 3,-4 -8,3 -8,3 -8,4 -8,4 -16,9 -14,10 -13,12 -13,12 -12,14 -10,15 -10,16 -8,17 -7,18 -7,18 -4,19 -4,20 -2,20 -1,20 0,50 1,12 0,13 2,12 1,12 3,11 2,12 4,11 3,11 4,11 5,10 5,10 5,10 12,18 6,9 7,9 7,8 7,7 8,7 8,7 8,7 9,5 9,6 9,5 9,4 10,4 9,3 10,3 10,2 11,1 10,1 10,1 c 1,0 3,-1 3,-2 1,0 2,-1 2,-3 l 0,-50 c 0,-2 -2,-4 -4,-4 l -10,0 -9,-1 -9,-1 -9,-2 -9,-2 -9,-3 -8,-3 -8,-3 -9,-5 -8,-4 -7,-5 -8,-5 -7,-6 -8,-6 -6,-6 -7,-7 -13,-15 -11,-16 -10,-17 -9,-18 -4,-10 -4,-10 -3,-10 -3,-10 -2,-11 -2,-10 -2,-11 -1,-11" /></g></g><path
   id="path62"
   style="fill:#ffffff;fill-opacity:1;fill-rule:evenodd;stroke:none"
   d="m 1415,632 -96,117 0,-48 c -170,75 -289,335 -289,634 l 0,-97 c 0,-298 119,-559 289,-633 l 0,-49" /><g
   id="g3134"
   transform="matrix(1,0,0,1.0178723,0,-9.6042843)"><path
     d="m 1031,1286 c 14,342 182,606 384,606 l 0,97 c -213,0 -385,-293 -385,-654 0,-16 0,-33 1,-49"
     style="fill:#cdcdcd;fill-opacity:1;fill-rule:evenodd;stroke:none"
     id="path64" /><g
     id="g3131"><path
       id="path66"
       style="fill:#000000;fill-opacity:1;fill-rule:nonzero;stroke:none"
       d="m 1026,1279.7154 2,31.3199 3,32.3302 4,31.3198 4,30.3096 5,30.3095 6,29.2992 7,29.2993 8,27.2785 8,27.2786 9,27.2786 10,25.258 10,25.2579 11,24.2477 11,23.2373 13,22.227 12,21.2167 14,20.2063 13,19.1961 15,18.1857 15,17.1754 15,15.1548 16,15.1547 16,13.1342 17,12.1238 17,11.1135 17,9.0929 18,9.0928 18,6.0619 18,6.0619 19,3.031 10,2.0206 9,1.0103 10,0 9,1.0104 -4,-5.0516 0,98.0008 5,-4.0412 -10,-1.0104 -10,0 -10,-1.0103 -9,-2.0206 -10,-1.0103 -9,-3.031 -10,-2.0206 -9,-3.031 -9,-4.0413 -9,-4.0412 -9,-4.0413 -9,-4.0413 -18,-10.1032 -17,-12.1238 -17,-13.1341 -17,-14.1445 -16,-16.165 -15,-17.1755 -15,-18.1857 -15,-19.196 -14,-20.2064 -13,-22.227 -13,-23.2373 -12,-23.2373 -11,-25.258 -11,-25.2579 -10,-27.2786 -9,-27.2786 -8,-28.2889 -8,-29.2992 -7,-29.2993 -6,-31.3198 -5,-31.3199 -5,-31.3198 -3,-32.3302 -2,-33.3405 -2,-33.3405 0,-34.3508 -7,4.0412 0,0 c 1,1.0104 3,1.0104 4,0 2,0 3,-2.0206 3,-3.0309 l 0,-126.2898 1,-27.2786 2,-27.2786 2,-27.2785 3,-27.2786 4,-26.2683 4,-26.2683 5,-25.2579 5,-25.25798 6,-25.25796 7,-24.24763 7,-23.23732 8,-23.23732 8,-23.23731 9,-22.227 9,-21.21668 10,-20.20636 10,-20.20637 11,-19.19604 11,-19.19604 12,-17.17541 12,-17.17541 12,-16.16509 13,-15.15477 13,-14.14445 14,-14.14446 14,-12.12382 14,-12.12381 15,-10.10318 15,-10.10318 15,-8.08255 16,-7.07223 c 1,-1.01031 2,-3.03095 2,-4.04127 l 0,-48.49527 -7,3.03096 97,75.77385 -1,-5.05159 -96,118.20722 7,2.02064 0,-48.49527 c 0,-1.01032 -1,-3.03095 -2,-3.03095 -1,-1.01032 -2,-1.01032 -4,-1.01032 l -16,8.08254 -15,9.09287 -16,9.09286 -15,11.1135 -14,12.12381 -15,13.13414 -14,13.13414 -13,15.15477 -13,15.15477 -13,17.17541 -12,17.1754 -12,17.17541 -11,19.19605 -11,19.19604 -10,21.21668 -10,20.20636 -10,22.227 -9,22.227 -8,22.227 -8,23.23732 -7,24.2476 -7,24.2477 -6,25.2579 -5,25.258 -5,26.2682 -4,26.2683 -4,27.2786 -3,26.2683 -3,27.2786 -1,28.2889 -1,28.2889 -1,28.2889 9,0 0,-28.2889 1,-28.2889 2,-27.2786 2,-27.2786 3,-26.2683 4,-27.2786 4,-25.2579 5,-26.2683 5,-25.2579 6,-24.2477 7,-24.2476 7,-24.2477 8,-23.23727 8,-22.227 9,-22.22699 9,-21.21668 10,-21.21668 10,-19.19605 11,-20.20636 11,-18.18573 12,-18.18572 12,-16.16509 12,-16.16509 13,-15.15477 13,-15.15478 14,-13.13413 14,-13.13414 14,-11.1135 15,-11.11349 15,-9.09287 15,-8.08254 16,-8.08255 -6,-4.04127 0,48.49527 c 0,2.02064 1,4.04127 3,4.04127 1,1.01032 3,0 4,-1.01032 L 1419,620.988 c 0,-1.01031 1,-2.02063 1,-3.03095 -1,-1.01032 -1,-2.02064 -2,-3.03095 l -96,-76.78418 c -2,-1.01032 -3,-1.01032 -5,0 -1,0 -2,2.02064 -2,4.04127 l 0,48.49527 2,-4.04127 -16,8.08254 -16,8.08255 -15,10.10318 -15,11.1135 -15,12.12382 -14,12.12381 -14,14.14446 -13,15.15477 -13,15.15477 -13,16.16509 -12,17.17541 -12,18.18572 -11,19.19605 -11,19.19604 -11,20.20636 -9,21.21668 -10,21.21669 -9,22.22699 -8,23.23732 -8,23.23732 -7,24.24763 -7,24.24764 -6,25.25795 -5,25.25792 -5,26.2683 -4,26.2683 -4,26.2682 -3,27.2786 -3,27.2786 -1,28.2889 -1,27.2786 -1,28.2889 0,98.0009 7,-4.0413 0,0 c -2,-1.0103 -3,-1.0103 -5,0 -1,1.0103 -2,2.0206 -2,4.0413 l 1,33.3405 1,34.3508 3,33.3405 3,32.3302 4,32.3302 6,31.3198 6,30.3096 7,30.3095 8,29.2992 8,29.2993 9,27.2785 11,27.2786 10,26.2683 12,25.258 12,24.2476 13,22.227 14,22.227 14,21.2167 14,20.2063 16,18.1858 15,17.1754 17,16.1651 17,15.1547 17,13.1342 18,12.1238 18,10.1032 9,5.0515 9,4.0413 10,4.0413 9,3.0309 10,4.0413 10,2.0207 10,3.0309 9,2.0206 10,1.0104 10,1.0103 10,1.0103 10,0 c 2,0 3,0 3,-1.0103 1,-1.0103 2,-2.0207 2,-3.031 l 0,-98.0008 c 0,-2.0207 -2,-4.0413 -4,-4.0413 l -10,0 -9,-1.0103 -9,0 -9,-2.0207 -18,-3.0309 -18,-6.0619 -18,-6.0619 -17,-8.0826 -17,-9.0928 -16,-11.1135 -17,-11.1135 -16,-13.1342 -15,-15.1547 -15,-15.1548 -15,-17.1754 -14,-17.1754 -13,-19.1961 -14,-20.2063 -12,-20.2064 -12,-22.227 -12,-23.2373 -10,-23.2373 -11,-25.258 -9,-25.2579 -9,-26.2683 -8,-27.2786 -8,-27.2786 -7,-29.2992 -6,-28.2889 -5,-30.3096 -4,-30.3095 -4,-31.3199 -2,-31.3198 -2,-32.3302" /></g></g><text
   xml:space="preserve"
   style="font-size:133.33332825px;font-style:normal;font-weight:normal;fill:#000000;fill-opacity:1;stroke:none;font-family:Bitstream Vera Sans"
   x="1147.8519"
   y="1548.4155"
   id="text2895-4"
   transform="matrix(0,1,1,0,0,0)"><tspan
     sodipodi:role="line"
     id="tspan2897-7"
     x="1147.8519"
     y="1548.4155"
     style="font-size:86.66666412px;font-style:normal;font-variant:normal;font-weight:bold;font-stretch:normal;text-align:start;text-anchor:start;font-family:Kinnari;-inkscape-font-specification:Kinnari Medium">Prototype</tspan></text>




<text
   xml:space="preserve"
   style="font-size:133.33332825px;font-style:normal;font-weight:normal;fill:#000000;fill-opacity:1;stroke:none;font-family:Bitstream Vera Sans"
   x="1521.6627"
   y="1548.4155"
   id="text2895-4-9"
   transform="matrix(0,1,1,0,0,0)"><tspan
     sodipodi:role="line"
     id="tspan2897-7-4"
     x="1521.6627"
     y="1548.4155"
     style="font-size:66.66666412px;font-style:normal;font-variant:normal;font-weight:bold;font-stretch:normal;font-family:Kinnari;-inkscape-font-specification:Kinnari Medium">Months</tspan></text>




<text
   xml:space="preserve"
   style="font-size:133.33332825px;font-style:normal;font-weight:normal;text-align:center;line-height:89.99999762%;text-anchor:middle;fill:#000000;fill-opacity:1;stroke:none;font-family:Bitstream Vera Sans"
   x="1969.8213"
   y="1515.0824"
   id="text2895-4-6"
   transform="matrix(0,1,1,0,0,0)"
   sodipodi:linespacing="89.999998%"><tspan
     sodipodi:role="line"
     x="1989.7953"
     y="1515.0824"
     style="font-size:86.66666412px;font-style:normal;font-variant:normal;font-weight:bold;font-stretch:normal;text-align:center;line-height:89.99999762%;writing-mode:lr-tb;text-anchor:middle;font-family:Kinnari;-inkscape-font-specification:Kinnari Bold"
     id="tspan2971">Final </tspan><tspan
     sodipodi:role="line"
     x="1969.8213"
     y="1593.0824"
     style="font-size:86.66666412px;font-style:normal;font-variant:normal;font-weight:bold;font-stretch:normal;text-align:center;line-height:89.99999762%;writing-mode:lr-tb;text-anchor:middle;font-family:Kinnari;-inkscape-font-specification:Kinnari Bold"
     id="tspan3004">version</tspan></text>





<text
   xml:space="preserve"
   style="font-size:133.33332825px;font-style:normal;font-weight:normal;writing-mode:lr-tb;fill:#000000;fill-opacity:1;stroke:none;font-family:Bitstream Vera Sans"
   x="579.56403"
   y="1548.4155"
   id="text2895-4-9-2"
   transform="matrix(0,1,1,0,0,0)"><tspan
     sodipodi:role="line"
     id="tspan2897-7-4-2"
     x="579.56403"
     y="1548.4155"
     style="font-size:86.66666412px;font-style:normal;font-variant:normal;font-weight:bold;font-stretch:normal;writing-mode:lr-tb;font-family:Kinnari;-inkscape-font-specification:Kinnari Medium">Idea</tspan></text>




<text
   xml:space="preserve"
   style="font-size:133.33332825px;font-style:normal;font-weight:normal;fill:#000000;fill-opacity:1;stroke:none;font-family:Bitstream Vera Sans"
   x="901.0144"
   y="1548.4155"
   id="text2895-4-9-6"
   transform="matrix(0,1,1,0,0,0)"><tspan
     sodipodi:role="line"
     id="tspan2897-7-4-9"
     x="901.0144"
     y="1548.4155"
     style="font-size:66.66666412px;font-style:normal;font-variant:normal;font-weight:bold;font-stretch:normal;font-family:Kinnari;-inkscape-font-specification:Kinnari Medium">Days</tspan></text>





<text
   xml:space="preserve"
   style="font-size:133.33332825px;font-style:normal;font-weight:normal;fill:#000000;fill-opacity:1;stroke:none;font-family:Bitstream Vera Sans"
   x="1144.7537"
   y="1007.48"
   id="text2895-4-9-6-3-5"
   transform="matrix(0,1,1,0,0,0)"><tspan
     sodipodi:role="line"
     id="tspan2897-7-4-9-9-1"
     x="1144.7537"
     y="1007.48"
     style="font-size:66.66666412px;font-style:normal;font-variant:normal;font-weight:bold;font-stretch:normal;font-family:Kinnari;-inkscape-font-specification:Kinnari Medium">Too slow</tspan></text>




<text
   xml:space="preserve"
   style="font-size:133.33332825px;font-style:normal;font-weight:normal;fill:#000000;fill-opacity:1;stroke:none;font-family:Bitstream Vera Sans"
   x="832.42487"
   y="1220.7974"
   id="text2895-4-9-6-3-5-9"
   transform="matrix(0,1,1,0,0,0)"><tspan
     sodipodi:role="line"
     id="tspan2897-7-4-9-9-1-6"
     x="832.42487"
     y="1220.7974"
     style="font-size:66.66666412px;font-style:normal;font-variant:normal;font-weight:bold;font-stretch:normal;font-family:Kinnari;-inkscape-font-specification:Kinnari Medium">Did not work</tspan></text>




<path
   id="path28"
   style="fill:#000000;fill-opacity:1;fill-rule:nonzero;stroke:none"
   d="m 1452.5599,475 -3.8281,1 -3.2812,1 -3.8282,1 -3.2812,2 -3.2813,3 -2.7343,4 -2.7344,3 -2.7344,5 -2.1875,4 -2.1875,6 -2.1876,5 -1.0937,6 -1.6406,6 -0.5469,6 -0.5468,7 -0.5469,7 0,250 0.5469,7 0.5468,6 0.5469,7 1.0937,6 1.6406,6 2.1876,5 1.6406,5 2.7344,5 2.1874,4 3.2814,4 2.7343,3 3.2813,3 3.2812,3 3.2813,1 3.8281,1 3.8281,1 136.7187,0 3.8281,-1 3.2813,-1 3.8282,-1 3.2812,-2 3.2813,-3 2.7343,-4 2.7343,-3 2.7345,-5 2.1875,-4 2.1876,-6 1.6405,-5 1.6406,-6 1.6406,-6 0.5469,-6 0.5469,-7 0.5469,-7 0,-250 -0.5469,-7 -0.5469,-6 -0.5469,-7 -1.0937,-6 -1.6406,-6 -2.1874,-5 -1.6407,-5 -2.7344,-5 -2.1875,-4 -3.2813,-4 -2.7343,-4 -3.2813,-2 -3.2812,-3 -3.2813,-1 -3.8282,-1 -3.8281,-1 -136.7187,0 z m 136.7187,9 3.2812,0 3.2813,1 2.7345,1 3.2811,2 2.7344,3 2.1876,3 2.7343,3 2.1875,4 2.1875,4 1.6407,4 1.6406,5 1.6406,5 1.0938,5 0.5468,6 0.5469,6 0,262 -0.5469,6 -0.5468,5 -1.0938,5 -1.6406,6 -1.6406,4 -1.6407,5 -2.1875,4 -2.1875,4 -2.1874,3 -2.7345,3 -2.7344,3 -2.7343,2 -3.2813,1 -3.2813,1 -143.2811,0 -3.2813,-1 -2.7344,-1 -3.2812,-2 -2.7344,-3 -2.1875,-3 -2.7343,-3 -2.1875,-4 -2.1876,-4 -1.6405,-4 -1.6407,-5 -1.6406,-5 -1.0937,-5 -0.5469,-6 -0.547,-6 0,-262 0.547,-6 0.5469,-5 1.0937,-6 1.6406,-5 1.6407,-4 1.6405,-5 2.1876,-4 2.1875,-4 2.1875,-3 2.7343,-3 2.7344,-3 2.7345,-2 3.2811,-1 3.2813,-1 3.2812,0" /></g></g></g></svg>