<?xml version="1.0" encoding="UTF-8" standalone="no"?>
<!-- Created with Inkscape (http://www.inkscape.org/) -->

<svg
   xmlns:dc="http://purl.org/dc/elements/1.1/"
   xmlns:cc="http://creativecommons.org/ns#"
   xmlns:rdf="http://www.w3.org/1999/02/22-rdf-syntax-ns#"
   xmlns:svg="http://www.w3.org/2000/svg"
   xmlns="http://www.w3.org/2000/svg"
   xmlns:sodipodi="http://sodipodi.sourceforge.net/DTD/sodipodi-0.dtd"
   xmlns:inkscape="http://www.inkscape.org/namespaces/inkscape"
   id="svg2"
   version="1.1"
   inkscape:version="0.47pre4 r22446"
   width="505.20001"
   height="202.47589"
   xml:space="preserve"
   sodipodi:docname="workflow2.svg"><metadata
     id="metadata8"><rdf:RDF><cc:Work
         rdf:about=""><dc:format>image/svg+xml</dc:format><dc:type
           rdf:resource="http://purl.org/dc/dcmitype/StillImage" /><dc:title></dc:title></cc:Work></rdf:RDF></metadata><defs
     id="defs6"><inkscape:perspective
       sodipodi:type="inkscape:persp3d"
       inkscape:vp_x="0 : 0.5 : 1"
       inkscape:vp_y="0 : 1000 : 0"
       inkscape:vp_z="1 : 0.5 : 1"
       inkscape:persp3d-origin="0.5 : 0.33333333 : 1"
       id="perspective10" /><clipPath
       clipPathUnits="userSpaceOnUse"
       id="clipPath20"><path
         d="m 115,254 0,3000 2250,0 0,-3000 -2250,0 z"
         clip-rule="evenodd"
         id="path22" /></clipPath><inkscape:perspective
       id="perspective2907"
       inkscape:persp3d-origin="0.5 : 0.33333333 : 1"
       inkscape:vp_z="1 : 0.5 : 1"
       inkscape:vp_y="0 : 1000 : 0"
       inkscape:vp_x="0 : 0.5 : 1"
       sodipodi:type="inkscape:persp3d" /><inkscape:perspective
       id="perspective2932"
       inkscape:persp3d-origin="0.5 : 0.33333333 : 1"
       inkscape:vp_z="1 : 0.5 : 1"
       inkscape:vp_y="0 : 1000 : 0"
       inkscape:vp_x="0 : 0.5 : 1"
       sodipodi:type="inkscape:persp3d" /><inkscape:perspective
       id="perspective2932-5"
       inkscape:persp3d-origin="0.5 : 0.33333333 : 1"
       inkscape:vp_z="1 : 0.5 : 1"
       inkscape:vp_y="0 : 1000 : 0"
       inkscape:vp_x="0 : 0.5 : 1"
       sodipodi:type="inkscape:persp3d" /><inkscape:perspective
       id="perspective2932-59"
       inkscape:persp3d-origin="0.5 : 0.33333333 : 1"
       inkscape:vp_z="1 : 0.5 : 1"
       inkscape:vp_y="0 : 1000 : 0"
       inkscape:vp_x="0 : 0.5 : 1"
       sodipodi:type="inkscape:persp3d" /><inkscape:perspective
       id="perspective2987"
       inkscape:persp3d-origin="0.5 : 0.33333333 : 1"
       inkscape:vp_z="1 : 0.5 : 1"
       inkscape:vp_y="0 : 1000 : 0"
       inkscape:vp_x="0 : 0.5 : 1"
       sodipodi:type="inkscape:persp3d" /><inkscape:perspective
       id="perspective3014"
       inkscape:persp3d-origin="0.5 : 0.33333333 : 1"
       inkscape:vp_z="1 : 0.5 : 1"
       inkscape:vp_y="0 : 1000 : 0"
       inkscape:vp_x="0 : 0.5 : 1"
       sodipodi:type="inkscape:persp3d" /><inkscape:perspective
       id="perspective3039"
       inkscape:persp3d-origin="0.5 : 0.33333333 : 1"
       inkscape:vp_z="1 : 0.5 : 1"
       inkscape:vp_y="0 : 1000 : 0"
       inkscape:vp_x="0 : 0.5 : 1"
       sodipodi:type="inkscape:persp3d" /><inkscape:perspective
       id="perspective3064"
       inkscape:persp3d-origin="0.5 : 0.33333333 : 1"
       inkscape:vp_z="1 : 0.5 : 1"
       inkscape:vp_y="0 : 1000 : 0"
       inkscape:vp_x="0 : 0.5 : 1"
       sodipodi:type="inkscape:persp3d" /><inkscape:perspective
       id="perspective3089"
       inkscape:persp3d-origin="0.5 : 0.33333333 : 1"
       inkscape:vp_z="1 : 0.5 : 1"
       inkscape:vp_y="0 : 1000 : 0"
       inkscape:vp_x="0 : 0.5 : 1"
       sodipodi:type="inkscape:persp3d" /><inkscape:perspective
       id="perspective3114"
       inkscape:persp3d-origin="0.5 : 0.33333333 : 1"
       inkscape:vp_z="1 : 0.5 : 1"
       inkscape:vp_y="0 : 1000 : 0"
       inkscape:vp_x="0 : 0.5 : 1"
       sodipodi:type="inkscape:persp3d" /></defs><sodipodi:namedview
     pagecolor="#ffffff"
     bordercolor="#666666"
     borderopacity="1"
     objecttolerance="10"
     gridtolerance="10"
     guidetolerance="10"
     inkscape:pageopacity="0"
     inkscape:pageshadow="2"
     inkscape:window-width="1280"
     inkscape:window-height="950"
     id="namedview4"
     showgrid="false"
     showguides="true"
     inkscape:guide-bbox="true"
     inkscape:zoom="0.89691211"
     inkscape:cx="49.683821"
     inkscape:cy="91.731159"
     inkscape:window-x="0"
     inkscape:window-y="25"
     inkscape:window-maximized="1"
     inkscape:current-layer="g2872" /><g
     id="g12"
     inkscape:groupmode="layer"
     inkscape:label="job_15-untitled_document"
     transform="matrix(1.25,0,0,-1.25,39.555931,695.73448)"><g
       id="g14"
       transform="matrix(0.24,0,0,0.24,-14.271186,3.3898314e-7)"><g
         id="g2872"
         transform="matrix(0,-1,1,0,-547.38983,3279.1949)"><rect
   style="color:#000000;fill:#ffffff;fill-opacity:1;fill-rule:nonzero;stroke:none;stroke-width:1;stroke-linecap:butt;stroke-linejoin:miter;stroke-miterlimit:4;stroke-opacity:1;stroke-dasharray:none;stroke-dashoffset:0;marker:none;visibility:visible;display:inline;overflow:visible;enable-background:accumulate"
   id="rect3013"
   width="503.95132"
   height="201.80347"
   x="1.1149365"
   y="0.67239374"
   transform="matrix(0,3.3333333,3.3333333,0,960.07998,475)" /><path
   id="path30"
   style="fill:#ffffff;fill-opacity:1;fill-rule:evenodd;stroke:none"
   d="m 1466.9996,1174.0009 0,163.0007 -57,0 113,112 112,-112 -56,0 0,-163.0007" /><path
   id="path32"
   style="fill:#000000;fill-opacity:1;fill-rule:nonzero;stroke:none"
   d="m 1486.2285,1170.0009 0,167.0007 2.7847,-4 -46.644,0 85.6302,122 85.6302,-122 -46.6441,0 2.7846,4 0,-167.0007 -83.5416,0 z m 80.757,9 -2.7848,-5 0,167.0007 41.7709,0 -1.3924,-7 -78.6684,113 4.1771,0 -78.6684,-113 -2.0886,7 42.4671,0 0,-167.0007 -2.7848,5" /><path
   id="path40"
   style="fill:#000000;fill-opacity:1;fill-rule:nonzero;stroke:none"
   d="m 1452.56,1454.9984 -3.8281,1 -3.2812,1 -3.8282,1 -3.2812,2 -3.2813,3 -2.7344,4 -2.7343,3 -2.7344,5 -2.1875,4 -2.1875,6 -2.1875,5 -1.0938,6 -1.6406,6 -0.5468,6 -0.5469,7 -0.5469,7 0,250 0.5469,7 0.5469,6 0.5468,7 1.0938,6 1.6406,6 2.1875,5 1.6406,5 2.7344,5 2.1875,4 3.2812,4 2.7344,3 3.2813,3 3.2812,3 3.2813,1 3.8281,1 3.8281,1 136.7188,0 3.828,-1 3.2813,-1 3.8282,-1 3.2812,-2 3.2813,-3 2.7344,-4 2.7343,-3 2.7344,-5 2.1875,-4 2.1876,-6 1.6405,-5 1.6406,-6 1.6406,-6 0.5469,-6 0.5469,-7 0.5469,-7 0,-250 -0.5469,-7 -0.5469,-6 -0.5469,-7 -1.0937,-6 -1.6406,-6 -2.1874,-5 -1.6407,-5 -2.7344,-5 -2.1876,-4 -3.2811,-4 -2.7344,-4 -3.2813,-2 -3.2812,-3 -3.2813,-1 -3.8282,-1 -3.828,-1 -136.7188,0 z m 136.7188,9 3.2812,0 3.2813,1 2.7344,1 3.2812,2 2.7343,3 2.1876,3 2.7344,3 2.1874,4 2.1875,4 1.6407,4 1.6406,5 1.6407,5 1.0937,5 0.5469,6 0.5468,6 0,262 -0.5468,6 -0.5469,5 -1.0937,5 -1.6407,6 -1.6406,4 -1.6407,5 -2.1875,4 -2.1874,4 -2.1875,3 -2.7345,3 -2.7343,3 -2.7343,2 -3.2813,1 -3.2813,1 -143.2812,0 -3.2813,-1 -2.7344,-1 -3.2812,-2 -2.7344,-3 -2.1875,-3 -2.7344,-3 -2.1874,-4 -2.1876,-4 -1.6405,-4 -1.6407,-5 -1.6406,-5 -1.0938,-5 -0.5469,-6 -0.5468,-6 0,-262 0.5468,-6 0.5469,-5 1.0938,-6 1.6406,-5 1.6407,-4 1.6405,-5 2.1876,-4 2.1874,-4 2.1876,-3 2.7343,-3 2.7344,-3 2.7344,-2 3.2812,-1 3.2813,-1 3.2812,0" /><path
   id="path56"
   style="fill:#ffffff;fill-opacity:1;fill-rule:evenodd;stroke:none"
   d="m 1415,1099.0006 -50,58.0002 0,-25.0001 c -88,27.0001 -150,122.0006 -150,230.0009 l 0,-50.0001 c 0,-108.0004 62,-203.0009 150,-230.001 l 0,-25.0001" /><g
   id="g3142"
   transform="matrix(1.1650619,0,0,1.3912058,-234.38791,-96.829593)"><path
     d="m 1217,1017 c 10,121 96,212 198,212 l 0,50 c -110,0 -200,-106 -200,-237 0,-8 1,-17 2,-25"
     style="fill:#cdcdcd;fill-opacity:1;fill-rule:evenodd;stroke:none"
     id="path58" /><g
     id="g3139"><path
       id="path60"
       style="fill:#000000;fill-opacity:1;fill-rule:nonzero;stroke:none"
       d="m 1212,1017 2,12 1,11 3,11 2,11 3,10 3,11 4,10 4,10 9,19 11,17 12,17 13,15 7,7 7,7 7,6 8,6 8,6 8,5 8,5 9,4 9,4 9,3 9,3 9,2 9,2 10,2 10,0 9,1 -4,-5 0,50 5,-4 -11,0 -10,-1 -9,-1 -10,-2 -9,-3 -10,-3 -9,-4 -9,-4 -8,-5 -9,-5 -8,-5 -8,-6 -8,-7 -7,-7 -7,-7 -7,-8 -6,-8 -6,-8 -12,-18 -5,-10 -5,-10 -4,-10 -4,-10 -3,-11 -4,-11 -2,-11 -2,-11 -2,-11 -1,-12 -1,-12 0,-82 2,-19 4,-19 5,-19 5,-18 8,-17 8,-16 9,-15 10,-15 11,-13 13,-13 13,-11 13,-10 15,-8 7,-4 8,-3 8,-3 8,-3 c 1,-1 3,-2 3,-4 l 0,-25 -7,3 50,43 -1,-6 -50,57 8,3 0,-25 c 0,-1 -1,-3 -2,-3 -1,-1 -3,-1 -4,-1 l -8,3 -8,3 -8,4 -8,3 -15,9 -15,11 -13,11 -13,13 -11,14 -11,15 -10,16 -8,17 -7,17 -6,19 -5,19 -4,19 -2,20 -1,21 9,0 0,-20 2,-19 4,-19 4,-19 6,-17 7,-17 9,-17 9,-15 10,-14 11,-14 12,-12 13,-11 14,-10 14,-9 8,-4 8,-3 8,-3 8,-3 -6,-4 0,25 c 0,2 1,3 3,4 2,1 3,0 5,-1 l 50,-58 c 0,-1 1,-2 1,-3 0,-1 -1,-2 -2,-3 l -50,-42 c -1,-1 -3,-1 -4,-1 -2,1 -3,2 -3,4 l 0,25 3,-4 -8,3 -8,3 -8,4 -8,4 -16,9 -14,10 -13,12 -13,12 -12,14 -10,15 -10,16 -8,17 -7,18 -7,18 -4,19 -4,20 -2,20 -1,20 0,50 1,12 0,13 2,12 1,12 3,11 2,12 4,11 3,11 4,11 5,10 5,10 5,10 12,18 6,9 7,9 7,8 7,7 8,7 8,7 8,7 9,5 9,6 9,5 9,4 10,4 9,3 10,3 10,2 11,1 10,1 10,1 c 1,0 3,-1 3,-2 1,0 2,-1 2,-3 l 0,-50 c 0,-2 -2,-4 -4,-4 l -10,0 -9,-1 -9,-1 -9,-2 -9,-2 -9,-3 -8,-3 -8,-3 -9,-5 -8,-4 -7,-5 -8,-5 -7,-6 -8,-6 -6,-6 -7,-7 -13,-15 -11,-16 -10,-17 -9,-18 -4,-10 -4,-10 -3,-10 -3,-10 -2,-11 -2,-10 -2,-11 -1,-11" /></g></g>





<text
   xml:space="preserve"
   style="font-size:133.33332825px;font-style:normal;font-weight:normal;text-align:center;line-height:89.99999762%;text-anchor:middle;fill:#000000;fill-opacity:1;stroke:none;font-family:Bitstream Vera Sans"
   x="1649.8232"
   y="1515.0824"
   id="text2895-4-6"
   transform="matrix(0,1,1,0,0,0)"
   sodipodi:linespacing="90%"><tspan
     sodipodi:role="line"
     x="1669.7972"
     y="1515.0824"
     style="font-size:86.66666667px;font-style:normal;font-variant:normal;font-weight:bold;font-stretch:normal;text-align:center;line-height:90%;writing-mode:lr;text-anchor:middle;font-family:Kinnari;-inkscape-font-specification:Kinnari Bold"
     id="tspan2971">Final </tspan><tspan
     sodipodi:role="line"
     x="1649.8232"
     y="1593.0824"
     style="font-size:86.66666667px;font-style:normal;font-variant:normal;font-weight:bold;font-stretch:normal;text-align:center;line-height:90%;writing-mode:lr;text-anchor:middle;font-family:Kinnari;-inkscape-font-specification:Kinnari Bold"
     id="tspan3004">version</tspan></text>




<text
   xml:space="preserve"
   style="font-size:133.33332825px;font-style:normal;font-weight:normal;writing-mode:lr-tb;fill:#000000;fill-opacity:1;stroke:none;font-family:Bitstream Vera Sans"
   x="899.565"
   y="1548.4155"
   id="text2895-4-9-2"
   transform="matrix(0,1,1,0,0,0)"><tspan
     sodipodi:role="line"
     id="tspan2897-7-4-2"
     x="899.565"
     y="1548.4155"
     style="font-size:86.66666412px;font-style:normal;font-variant:normal;font-weight:bold;font-stretch:normal;writing-mode:lr-tb;font-family:Kinnari;-inkscape-font-specification:Kinnari Medium">Idea</tspan></text>



<text
   xml:space="preserve"
   style="font-size:133.33332825px;font-style:normal;font-weight:normal;fill:#000000;fill-opacity:1;stroke:none;font-family:Bitstream Vera Sans"
   x="1221.0135"
   y="1550.533"
   id="text2895-4-9-6"
   transform="matrix(0,1,1,0,0,0)"><tspan
     sodipodi:role="line"
     id="tspan2897-7-4-9"
     x="1221.0135"
     y="1550.533"
     style="font-size:66.66666412px;font-style:normal;font-variant:normal;font-weight:bold;font-stretch:normal;font-family:Kinnari;-inkscape-font-specification:Kinnari Medium">Days</tspan></text>







<text
   xml:space="preserve"
   style="font-size:133.33332825px;font-style:normal;font-weight:normal;fill:#000000;fill-opacity:1;stroke:none;font-family:Bitstream Vera Sans"
   x="945.75854"
   y="1154.1311"
   id="text2895-4-9-6-3-5-9"
   transform="matrix(0,1,1,0,0,0)"><tspan
     sodipodi:role="line"
     id="tspan2897-7-4-9-9-1-6"
     x="945.75854"
     y="1154.1311"
     style="font-size:66.66666412px;font-style:normal;font-variant:normal;font-weight:bold;font-stretch:normal;font-family:Kinnari;-inkscape-font-specification:Kinnari Medium">Did not work or too slow</tspan></text>



<path
   id="path28"
   style="fill:#000000;fill-opacity:1;fill-rule:nonzero;stroke:none"
   d="m 1452.5599,795.00016 -3.8281,1 -3.2812,1 -3.8282,1 -3.2812,2 -3.2813,3 -2.7343,4 -2.7344,3 -2.7344,5 -2.1875,4 -2.1875,6 -2.1876,5 -1.0937,6 -1.6406,6 -0.5469,6 -0.5468,7 -0.5469,7 0,250.00044 0.5469,7.0001 0.5468,6 0.5469,7 1.0937,6.0001 1.6406,6 2.1876,5 1.6406,5 2.7344,5 2.1874,4.0001 3.2814,4 2.7343,3 3.2813,3 3.2812,3 3.2813,1 3.8281,1 3.8281,1 136.7187,0 3.8281,-1 3.2813,-1 3.8282,-1 3.2812,-2 3.2813,-3 2.7343,-4 2.7343,-3 2.7345,-5.0001 2.1875,-4 2.1876,-6 1.6405,-5 1.6406,-6 1.6406,-6.0001 0.5469,-6 0.5469,-7 0.5469,-7.0001 0,-250.00044 -0.5469,-7 -0.5469,-6 -0.5469,-7 -1.0937,-6 -1.6406,-6 -2.1874,-5 -1.6407,-5 -2.7344,-5 -2.1875,-4 -3.2813,-4 -2.7343,-4 -3.2813,-2 -3.2812,-3 -3.2813,-1 -3.8282,-1 -3.8281,-1 -136.7187,0 z m 136.7187,9 3.2812,0 3.2813,1 2.7345,1 3.2811,2 2.7344,3 2.1876,3 2.7343,3 2.1875,4 2.1875,4 1.6407,4 1.6406,5 1.6406,5 1.0938,5 0.5468,6 0.5469,6 0,262.00054 -0.5469,6 -0.5468,5 -1.0938,5.0001 -1.6406,6 -1.6406,4 -1.6407,5 -2.1875,4 -2.1875,4 -2.1874,3.0001 -2.7345,3 -2.7344,3 -2.7343,2 -3.2813,1 -3.2813,1 -143.2811,0 -3.2813,-1 -2.7344,-1 -3.2812,-2 -2.7344,-3 -2.1875,-3 -2.7343,-3.0001 -2.1875,-4 -2.1876,-4 -1.6405,-4 -1.6407,-5 -1.6406,-5 -1.0937,-5.0001 -0.5469,-6 -0.547,-6 0,-262.00054 0.547,-6 0.5469,-5 1.0937,-6 1.6406,-5 1.6407,-4 1.6405,-5 2.1876,-4 2.1875,-4 2.1875,-3 2.7343,-3 2.7344,-3 2.7345,-2 3.2811,-1 3.2813,-1 3.2812,0" /></g></g></g></svg>